<?xml version="1.0" standalone="no"?>
<!DOCTYPE svg PUBLIC "-//W3C//DTD SVG 20010904//EN"
 "http://www.w3.org/TR/2001/REC-SVG-20010904/DTD/svg10.dtd">
<svg version="1.0" xmlns="http://www.w3.org/2000/svg"
 width="300.000000pt" height="300.000000pt" viewBox="0 0 300.000000 300.000000"
 preserveAspectRatio="xMidYMid meet">

<g transform="translate(0.000000,300.000000) scale(0.100000,-0.100000)"
fill="#000000" stroke="none">
<path d="M1451 2484 c-28 -36 -26 -70 5 -101 32 -32 30 -71 -11 -162 -51 -114
-128 -151 -194 -95 -34 29 -38 45 -16 64 20 16 19 70 -1 98 -21 30 -58 28 -83
-4 -28 -35 -26 -69 3 -99 l25 -25 -26 -30 c-50 -60 -105 -74 -160 -40 -46 28
-70 67 -55 91 29 45 1 129 -42 129 -46 0 -46 -9 6 -118 27 -59 81 -176 119
-260 l70 -152 -31 -46 c-43 -62 -69 -123 -85 -202 -7 -37 -21 -92 -29 -122
-32 -114 -16 -206 51 -280 30 -34 60 -55 96 -68 l52 -20 3 -54 3 -55 59 -28
c67 -32 83 -59 78 -126 -2 -36 0 -44 16 -47 16 -3 18 0 12 31 -4 24 -3 36 6
39 26 10 38 -4 38 -45 l1 -42 14 32 c18 42 57 53 93 26 33 -25 38 -53 18 -103
-14 -36 -14 -41 0 -55 9 -9 24 -15 33 -13 17 4 17 13 6 84 -9 50 7 84 38 84
12 0 42 14 66 30 48 33 82 38 101 15 14 -16 11 -41 -16 -167 -21 -99 -14 -141
24 -146 55 -8 65 41 32 147 -31 97 -10 201 51 255 26 23 29 32 29 86 0 50 3
60 18 60 9 0 40 11 68 24 118 55 170 190 129 336 -9 30 -23 88 -31 129 -16 77
-49 153 -91 209 -17 22 -23 41 -19 56 3 12 53 125 111 250 58 126 104 235 101
242 -8 21 -43 17 -67 -7 -21 -21 -23 -59 -4 -116 6 -18 0 -30 -27 -57 -61 -61
-116 -60 -180 4 l-39 38 26 26 c27 27 31 55 14 89 -23 43 -68 50 -93 15 -21
-29 -20 -63 2 -100 l17 -29 -33 -30 c-23 -21 -43 -29 -69 -29 -52 0 -113 65
-142 151 -25 73 -26 107 -6 133 21 28 19 78 -5 104 -28 29 -54 28 -79 -4z
m176 -594 c123 -29 258 -133 313 -242 27 -55 37 -88 26 -88 -2 0 -20 7 -39 15
-20 8 -51 15 -69 15 l-33 0 45 -21 c97 -44 150 -133 150 -252 -1 -126 -71
-203 -200 -219 -23 -3 -25 -8 -30 -66 l-5 -64 -58 -31 c-64 -35 -76 -31 -78
28 -1 29 -1 30 -9 5 -4 -14 -9 -38 -9 -55 -1 -25 -9 -34 -51 -57 -28 -16 -52
-28 -54 -28 -2 0 -7 35 -12 78 l-8 77 -9 -75 c-5 -41 -10 -76 -12 -78 -2 -2
-26 9 -54 25 -45 25 -51 32 -52 63 0 19 -5 46 -9 60 -7 22 -8 20 -9 -15 -2
-65 -9 -67 -86 -27 l-70 37 -3 61 -3 62 -42 6 c-66 11 -122 49 -147 102 -43
89 -12 252 62 321 12 12 43 31 68 42 38 18 41 21 19 21 -15 0 -46 -7 -69 -15
-24 -8 -45 -14 -47 -12 -7 8 28 89 56 131 60 87 149 151 261 187 62 20 199 24
267 9z"/>
<path d="M1160 1482 c-49 -26 -80 -90 -80 -165 0 -69 10 -91 50 -112 67 -35
175 -12 236 49 45 44 64 93 64 165 0 28 7 52 18 64 16 20 16 20 -3 12 -23 -10
-78 -10 -180 0 -58 5 -76 3 -105 -13z"/>
<path d="M1563 1487 c12 -10 17 -29 17 -62 0 -73 20 -126 65 -170 64 -64 177
-85 242 -45 80 48 56 224 -37 273 -28 15 -47 17 -100 11 -95 -10 -152 -10
-180 -1 -23 7 -23 7 -7 -6z"/>
<path d="M1476 1198 c-58 -100 -59 -128 -4 -86 l33 25 33 -25 c18 -14 35 -22
39 -18 8 7 -45 122 -63 137 -9 7 -19 -1 -38 -33z"/>
<path d="M1352 675 c-16 -54 -15 -84 3 -92 25 -9 28 1 18 69 l-9 63 -12 -40z"/>
</g>
</svg>
